<?xml version="1.0" encoding="utf-8"?>
<!-- Generator: Adobe Illustrator 17.0.0, SVG Export Plug-In . SVG Version: 6.00 Build 0)  -->
<!DOCTYPE svg PUBLIC "-//W3C//DTD SVG 1.1//EN" "http://www.w3.org/Graphics/SVG/1.1/DTD/svg11.dtd">
<svg version="1.1" id="Warstwa_1" xmlns="http://www.w3.org/2000/svg" xmlns:xlink="http://www.w3.org/1999/xlink" x="0px" y="0px"
	 width="184.707px" height="57.519px" viewBox="35.207 42.105 184.707 57.519"
	 enable-background="new 35.207 42.105 184.707 57.519" xml:space="preserve">
<polygon fill="#75C094" points="197.91,60.931 189.999,54.422 197.91,62.333 205.822,54.422 "/>
<g>
	<path d="M92.162,76.053c-2.414,13.435-14.158,23.57-28.236,23.57c-15.848,0-28.719-12.871-28.719-28.719
		c0-15.928,12.871-28.799,28.719-28.799c14.078,0,25.822,10.216,28.236,23.57h-1.528c-2.414-12.55-13.515-22.042-26.708-22.042
		c-15.043,0-27.19,12.228-27.19,27.271c0,14.963,12.147,27.19,27.19,27.19c13.193,0,24.294-9.492,26.708-22.042L92.162,76.053
		L92.162,76.053z"/>
	<path fill="#75C094" d="M107.369,43.635v54.461h10.699v1.528H95.141v-1.528h10.699V43.635H95.141v-1.528h22.927v1.528H107.369z"/>
	<path d="M167.783,43.635h-20.11v55.989h-1.529V43.635h-20.03v-1.528h41.67L167.783,43.635L167.783,43.635z"/>
	<path d="M198.675,71.146v28.478h-1.608V71.146l-21.237-29.04h1.931l20.111,27.432l20.11-27.432h1.932L198.675,71.146z"/>
</g>
</svg>
